{"title":"The Thing 2011 R5 LiNE XviD-MiSTERE","uid":6839342,"size":1237721905,"categoryP":"video","categoryS":"movies","magnet":"?xt=urn:btih:ecc9253fc5760a01a77df9d0b8e8f12cbb51502a&amp;dn=The+Thing+2011+R5+LiNE+XviD-MiSTERE&amp;tr=udp%3A%2F%2Ftracker.openbittorrent.com%3A80&amp;tr=udp%3A%2F%2Fopen.demonii.com%3A1337&amp;tr=udp%3A%2F%2Ftracker.coppersurfer.tk%3A6969&amp;tr=udp%3A%2F%2Fexodus.desync.com%3A6969","seeders":0,"leechers":1,"uploader":".BONE.","files":3,"time":1322120416,"description":"The Thing 2011 R5 LiNE XviD - MiSTERE\n  &lt;a href=&quot;\nhttp://www.imdb.com/title/tt0905372/&quot; rel=&quot;nofollow&quot; target=&quot;_NEW&quot;&gt;\nhttp://www.imdb.com/title/tt0905372/&lt;/a&gt;\n \nVideo\nID                               : 0\nFormat                           : MPEG-4 Visual\nFormat profile                   : Advanced Simple@L5\nFormat settings, BVOP            : 1\nFormat settings, QPel            : No\nFormat settings, GMC             : No warppoints\nFormat settings, Matrix          : Default (H.263)\nCodec ID                         : XVID\nCodec ID/Hint                    : XviD\nDuration                         : 1h 38mn\nBit rate                         : 1 515 Kbps\nWidth                            : 720 pixels\nHeight                           : 304 pixels\nDisplay aspect ratio             : 2.35:1\nFrame rate                       : 25.000 fps\nColor space                      : YUV\nChroma subsampling               : 4:2:0\nBit depth                        : 8 bits\nScan type                        : Progressive\nCompression mode                 : Lossy\nBits/(Pixel*Frame)               : 0.277\nStream size                      : 1.05 GiB (92%)\nWriting library                  : XviD 1.2.1 (UTC 2008-12-04)\n \nAudio\nID                               : 1\nFormat                           : MPEG Audio\nFormat version                   : Version 1\nFormat profile                   : Layer 3\nMode                             : Joint stereo\nMode extension                   : MS Stereo\nCodec ID                         : 55\nCodec ID/Hint                    : MP3\nDuration                         : 1h 38mn\nBit rate mode                    : Constant\nBit rate                         : 128 Kbps\nChannel(s)                       : 2 channels\nSampling rate                    : 44.1 KHz\nCompression mode                 : Lossy\nStream size                      : 90.5 MiB (8%)\nAlignment                        : Split accross interleaves\nInterleave, duration             : 40 ms (1.00 video frame)\n \n \nNot much to say here,\nvideo is nice, audio is nice\nnothing missing, BUT\nno subs for foreign language\nso enjoy or wait for retail\n \n \n  &lt;a href=&quot;\nhttp://i.imgur.com/cZwHE.png&quot; rel=&quot;nofollow&quot; target=&quot;_NEW&quot;&gt;\nhttp://i.imgur.com/cZwHE.png&lt;/a&gt;  &lt;a href=&quot;\nhttp://i.imgur.com/tpTAa.png&quot; rel=&quot;nofollow&quot; target=&quot;_NEW&quot;&gt;\nhttp://i.imgur.com/tpTAa.png&lt;/a&gt;  &lt;a href=&quot;\nhttp://i.imgur.com/AeN9U.png&quot; rel=&quot;nofollow&quot; target=&quot;_NEW&quot;&gt;\nhttp://i.imgur.com/AeN9U.png&lt;/a&gt;  &lt;a href=&quot;\nhttp://i.imgur.com/uw7W8.png&quot; rel=&quot;nofollow&quot; target=&quot;_NEW&quot;&gt;\nhttp://i.imgur.com/uw7W8.png&lt;/a&gt;  &lt;a href=&quot;\nhttp://i.imgur.com/CXEQf.png&quot; rel=&quot;nofollow&quot; target=&quot;_NEW&quot;&gt;\nhttp://i.imgur.com/CXEQf.png&lt;/a&gt;  &lt;a href=&quot;\nhttp://i.imgur.com/KrFBG.png&quot; rel=&quot;nofollow&quot; target=&quot;_NEW&quot;&gt;\nhttp://i.imgur.com/KrFBG.png&lt;/a&gt;  &lt;a href=&quot;\nhttp://i.imgur.com/pA1Gw.png&quot; rel=&quot;nofollow&quot; target=&quot;_NEW&quot;&gt;\nhttp://i.imgur.com/pA1Gw.png&lt;/a&gt;  &lt;a href=&quot;\nhttp://i.imgur.com/4h4Im.png&quot; rel=&quot;nofollow&quot; target=&quot;_NEW&quot;&gt;\nhttp://i.imgur.com/4h4Im.png&lt;/a&gt;  &lt;a href=&quot;\nhttp://i.imgur.com/7hBat.png&quot; rel=&quot;nofollow&quot; target=&quot;_NEW&quot;&gt;\nhttp://i.imgur.com/7hBat.png&lt;/a&gt;","torrent":{"xt":"urn:btih:ecc9253fc5760a01a77df9d0b8e8f12cbb51502a","amp;dn":"The+Thing+2011+R5+LiNE+XviD-MiSTERE","amp;tr":["udp%3A%2F%2Ftracker.openbittorrent.com%3A80","udp%3A%2F%2Fopen.demonii.com%3A1337","udp%3A%2F%2Ftracker.coppersurfer.tk%3A6969","udp%3A%2F%2Fexodus.desync.com%3A6969"],"infoHash":"ecc9253fc5760a01a77df9d0b8e8f12cbb51502a","infoHashBuffer":{"type":"Buffer","data":[236,201,37,63,197,118,10,1,167,125,249,208,184,232,241,44,187,81,80,42]},"announce":[],"urlList":[]}}